<mxfile host="app.diagrams.net" agent="Mozilla/5.0 (Windows NT 10.0; Win64; x64) AppleWebKit/537.36 (KHTML, like Gecko) Chrome/136.0.0.0 Safari/537.36" version="27.1.6">
  <diagram name="Page-1" id="74e2e168-ea6b-b213-b513-2b3c1d86103e">
    <mxGraphModel dx="1754" dy="825" grid="1" gridSize="10" guides="1" tooltips="1" connect="1" arrows="1" fold="1" page="1" pageScale="1" pageWidth="1200" pageHeight="900" background="none" math="0" shadow="0">
      <root>
        <mxCell id="0" />
        <mxCell id="1" parent="0" />
        <mxCell id="ec4qWjSpOFbNt0fFDD37-17" value="" style="group" vertex="1" connectable="0" parent="1">
          <mxGeometry x="40" y="80" width="1080" height="800" as="geometry" />
        </mxCell>
        <mxCell id="ec4qWjSpOFbNt0fFDD37-2" value="Clinet" style="rounded=1;whiteSpace=wrap;html=1;" vertex="1" parent="ec4qWjSpOFbNt0fFDD37-17">
          <mxGeometry width="120" height="60" as="geometry" />
        </mxCell>
        <mxCell id="ec4qWjSpOFbNt0fFDD37-4" value="Controller" style="rounded=1;whiteSpace=wrap;html=1;" vertex="1" parent="ec4qWjSpOFbNt0fFDD37-17">
          <mxGeometry x="240" width="120" height="60" as="geometry" />
        </mxCell>
        <mxCell id="ec4qWjSpOFbNt0fFDD37-5" value="BL" style="rounded=1;whiteSpace=wrap;html=1;" vertex="1" parent="ec4qWjSpOFbNt0fFDD37-17">
          <mxGeometry x="480" width="120" height="60" as="geometry" />
        </mxCell>
        <mxCell id="ec4qWjSpOFbNt0fFDD37-6" value="Repo" style="rounded=1;whiteSpace=wrap;html=1;" vertex="1" parent="ec4qWjSpOFbNt0fFDD37-17">
          <mxGeometry x="720" width="120" height="60" as="geometry" />
        </mxCell>
        <mxCell id="ec4qWjSpOFbNt0fFDD37-7" value="DB" style="rounded=1;whiteSpace=wrap;html=1;" vertex="1" parent="ec4qWjSpOFbNt0fFDD37-17">
          <mxGeometry x="960" width="120" height="60" as="geometry" />
        </mxCell>
        <mxCell id="ec4qWjSpOFbNt0fFDD37-12" value="" style="endArrow=none;dashed=1;html=1;rounded=0;entryX=0.5;entryY=1;entryDx=0;entryDy=0;" edge="1" parent="ec4qWjSpOFbNt0fFDD37-17" target="ec4qWjSpOFbNt0fFDD37-2">
          <mxGeometry width="50" height="50" relative="1" as="geometry">
            <mxPoint x="60" y="800" as="sourcePoint" />
            <mxPoint x="300" y="140" as="targetPoint" />
          </mxGeometry>
        </mxCell>
        <mxCell id="ec4qWjSpOFbNt0fFDD37-13" value="" style="endArrow=none;dashed=1;html=1;rounded=0;entryX=0.5;entryY=1;entryDx=0;entryDy=0;" edge="1" parent="ec4qWjSpOFbNt0fFDD37-17">
          <mxGeometry width="50" height="50" relative="1" as="geometry">
            <mxPoint x="299.40999999999997" y="800" as="sourcePoint" />
            <mxPoint x="299.40999999999997" y="60" as="targetPoint" />
          </mxGeometry>
        </mxCell>
        <mxCell id="ec4qWjSpOFbNt0fFDD37-14" value="" style="endArrow=none;dashed=1;html=1;rounded=0;entryX=0.5;entryY=1;entryDx=0;entryDy=0;" edge="1" parent="ec4qWjSpOFbNt0fFDD37-17">
          <mxGeometry width="50" height="50" relative="1" as="geometry">
            <mxPoint x="539.41" y="800" as="sourcePoint" />
            <mxPoint x="539.41" y="60" as="targetPoint" />
          </mxGeometry>
        </mxCell>
        <mxCell id="ec4qWjSpOFbNt0fFDD37-15" value="" style="endArrow=none;dashed=1;html=1;rounded=0;entryX=0.5;entryY=1;entryDx=0;entryDy=0;" edge="1" parent="ec4qWjSpOFbNt0fFDD37-17">
          <mxGeometry width="50" height="50" relative="1" as="geometry">
            <mxPoint x="779.41" y="800" as="sourcePoint" />
            <mxPoint x="779.41" y="60" as="targetPoint" />
          </mxGeometry>
        </mxCell>
        <mxCell id="ec4qWjSpOFbNt0fFDD37-16" value="" style="endArrow=none;dashed=1;html=1;rounded=0;entryX=0.5;entryY=1;entryDx=0;entryDy=0;" edge="1" parent="ec4qWjSpOFbNt0fFDD37-17">
          <mxGeometry width="50" height="50" relative="1" as="geometry">
            <mxPoint x="1019.4100000000001" y="800" as="sourcePoint" />
            <mxPoint x="1019.4100000000001" y="60" as="targetPoint" />
          </mxGeometry>
        </mxCell>
      </root>
    </mxGraphModel>
  </diagram>
</mxfile>
